<?xml version="1.0" encoding="utf-8"?>
<!-- Generator: Adobe Illustrator 27.7.0, SVG Export Plug-In . SVG Version: 6.00 Build 0)  -->
<svg version="1.1" id="Layer_1" xmlns="http://www.w3.org/2000/svg" xmlns:xlink="http://www.w3.org/1999/xlink" x="0px" y="0px"
	 viewBox="0 0 1584.4 607.9" style="enable-background:new 0 0 1584.4 607.9;" xml:space="preserve">
<g>
	<g>
		<path d="M880.3,93.6c-19.3-0.2-33.8-5.6-43.6-16c-7.9-8.4-11.6-18-11.1-29c0.6-13.6,6.1-25.1,16.5-34.5C852.4,4.7,864.7,0,879.1,0
			c12.7,0,24,2.7,34,8c12,6.3,19.5,15.4,22.7,27.3c0.5,1.9,0.2,3.7-0.7,5.4c-1,1.7-2.5,2.8-4.5,3.3c-1.9,0.6-3.7,0.3-5.4-0.7
			c-1.7-1-2.8-2.4-3.3-4.3c-2.2-8.4-7.8-14.7-16.9-19c-7.6-3.7-16.2-5.5-25.9-5.5c-10.5,0-19.6,3.4-27.1,10.1
			c-7.6,6.7-11.6,15-12,24.8c-0.3,6.9,2.1,13.1,7.2,18.4c7,7.5,18.1,11.3,33.4,11.6c2,0.1,3.7,0.8,5.1,2.2c1.4,1.4,2,3.2,2,5.2
			c-0.1,1.9-0.8,3.6-2.2,4.9C884.1,93.1,882.4,93.7,880.3,93.6L880.3,93.6L880.3,93.6z M848.5,165c-12-6.3-19.5-15.5-22.7-27.5
			c-0.5-1.8-0.2-3.7,0.7-5.4c1-1.7,2.5-2.8,4.5-3.3c1.8-0.5,3.7-0.2,5.4,0.7c1.7,1,2.8,2.5,3.3,4.3c2.2,8.4,7.8,14.7,16.9,19.2
			c7.5,3.6,16.2,5.4,25.9,5.4c10.5,0,19.6-3.4,27.1-10.1s11.6-15,12-24.7c0.3-7-2.1-13.2-7.2-18.6c-7-7.5-18.1-11.3-33.4-11.6
			c-2,0-3.7-0.7-5.1-2.2c-1.4-1.4-2-3.1-2-5.1c0.1-2,0.8-3.7,2.3-5.1c1.4-1.4,3.1-2,5.1-2c19.3,0.3,33.8,5.7,43.6,16.1
			c7.9,8.3,11.5,17.9,11,28.9c-0.6,13.6-6,25.1-16.4,34.5c-10.3,9.4-22.6,14.1-37,14.1C869.8,172.9,858.4,170.3,848.5,165z"/>
		<path d="M981.1,165.6c0,2-0.7,3.7-2,5.2c-1.4,1.4-3.1,2-5.1,2s-3.7-0.7-5.2-2c-1.4-1.4-2-3.2-2-5.2V7.7c0-3.6,1.8-5.9,5.3-6.9
			s6.1,0.1,8.1,3.3l71.8,118.7l71.8-118.7c1.9-3.1,4.6-4.2,8.1-3.3c3.5,1,5.3,3.3,5.3,6.9v157.9c0,2-0.7,3.7-2.2,5.2
			c-1.4,1.4-3.1,2-5.1,2c-1.9,0-3.6-0.7-5.1-2c-1.4-1.4-2-3.2-2-5.2V33.5l-64.7,106.9l-0.1,0.1v0.1c-0.2,0.2-0.3,0.4-0.5,0.6
			s-0.4,0.4-0.5,0.5c-0.2,0.2-0.3,0.3-0.5,0.5s-0.4,0.3-0.6,0.5c-0.4,0.2-0.5,0.3-0.2,0.1c0.1-0.1,0,0-0.4,0.1
			c-0.2,0.2-0.5,0.3-0.7,0.4s-0.4,0.2-0.6,0.2c-0.2,0.1-0.5,0.1-0.7,0.1c-0.2,0.1-0.4,0.1-0.6,0.1c-0.2,0.1-0.5,0.1-0.7,0.1
			s-0.5,0-0.7-0.1c-0.2,0-0.4,0-0.6-0.1c-0.2,0-0.5,0-0.7-0.1s-0.4-0.2-0.6-0.2c-0.2-0.1-0.5-0.2-0.7-0.4c-0.1,0-0.2,0-0.2,0
			c0-0.1,0-0.1-0.1-0.1c0.2,0.2,0.2,0.1-0.2-0.1c-0.2-0.2-0.4-0.3-0.6-0.5s-0.3-0.3-0.5-0.5s-0.3-0.3-0.5-0.5s-0.3-0.4-0.5-0.6v-0.1
			l-0.1-0.1L981.3,33.5v132.1H981.1z"/>
		<path d="M1169.6,172.3c-1.8-0.7-3.1-2-3.9-3.9c-0.8-1.8-0.8-3.7,0-5.5l16.7-40.4v-0.1l48.8-117.7c0.2-0.4,0.4-0.8,0.6-1.3l0.5-0.5
			c0.2-0.3,0.4-0.5,0.5-0.6s0.3-0.2,0.6-0.5c0.4-0.3,0.6-0.4,0.5-0.4c0.8-0.6,1.6-0.9,2.5-1.1h0.6c0.5-0.1,0.8-0.1,0.8-0.1
			c0.1,0,0.3,0,0.7,0.1c0.5,0,0.7,0,0.6,0c1,0.2,1.8,0.5,2.7,1.1l0.5,0.4c0.3,0.3,0.5,0.5,0.6,0.5c0.1,0.1,0.2,0.3,0.5,0.6
			c0.3,0.4,0.5,0.6,0.5,0.5c0.2,0.5,0.4,0.9,0.6,1.3l48.8,117.7v0.1l16.7,40.4c0.8,1.8,0.8,3.7,0,5.5c-0.7,1.8-2,3.1-3.9,3.9
			c-0.9,0.4-1.8,0.6-2.8,0.6c-3.2,0-5.4-1.5-6.6-4.5l-14.9-35.9h-87.9l-14.9,35.9c-1.2,3-3.4,4.5-6.6,4.5c-1,0-1.4,0-1.4,0
			S1170.4,172.7,1169.6,172.3z M1275.9,118l-38.1-91.8l-38.1,91.8L1275.9,118L1275.9,118z"/>
		<path d="M1396.2,0.3c13.9,0,25.8,4.5,35.7,13.6c9.8,9.1,14.7,20,14.7,32.9c0,11.4-4,21.4-12,30.1c-7.9,8.6-17.8,13.8-29.8,15.7
			l34.3,70c0.9,1.8,1,3.6,0.4,5.4s-1.8,3.2-3.6,4.1c-1,0.5-2,0.7-3.1,0.7c-3,0-5.1-1.3-6.4-4l-37.2-75.5H1349v71.2
			c0,1.9-0.7,3.6-2.2,5.1c-1.4,1.4-3.1,2-5.1,2c-1.9,0-3.6-0.7-5.1-2c-1.4-1.4-2-3.1-2-5.1V7.4c0-2,0.7-3.7,2-5.1
			c1.4-1.4,3.1-2,5.1-2H1396.2z M1432.3,46.8c0-8.9-3.5-16.5-10.6-22.8s-15.6-9.5-25.5-9.5h-47.3V79h48.2c9.8-0.2,18.1-3.4,24.9-9.6
			C1428.9,63.1,1432.3,55.6,1432.3,46.8z"/>
		<path d="M1514.7,14.4h-47.6c-2,0-3.7-0.7-5.2-2c-1.4-1.4-2-3.1-2-5.1s0.7-3.7,2-5.1c1.4-1.4,3.2-2.2,5.2-2.2h109.5
			c2,0,3.7,0.7,5.1,2.2c1.4,1.4,2.2,3.1,2.2,5.1s-0.7,3.7-2.2,5.1c-1.4,1.4-3.1,2-5.1,2H1529v151.2c0,2-0.7,3.7-2,5.2
			c-1.4,1.4-3.2,2-5.2,2c-1.9,0-3.6-0.7-5.1-2c-1.4-1.4-2-3.2-2-5.2L1514.7,14.4L1514.7,14.4z"/>
	</g>
	<g>
		<path d="M945.9,397.2c-2,0-3.7-0.7-5.2-2.2c-1.4-1.4-2-3.1-2-5.1v-71.8h-98.4v71.8c0,2-0.7,3.7-2,5.1c-1.4,1.4-3.2,2.2-5.2,2.2
			s-3.7-0.7-5.1-2.2c-1.4-1.4-2.2-3.1-2.2-5.1V231.8c0-2,0.7-3.7,2.2-5.1c1.4-1.4,3.1-2.2,5.1-2.2s3.7,0.7,5.2,2.2
			c1.4,1.4,2,3.1,2,5.1v71.8h98.4v-71.8c0-2,0.7-3.7,2-5.1c1.4-1.4,3.2-2.2,5.2-2.2s3.7,0.7,5.1,2.2c1.4,1.4,2.2,3.1,2.2,5.1v158.1
			c0,2-0.7,3.7-2.2,5.1C949.6,396.5,947.9,397.2,945.9,397.2z"/>
		<path d="M1091.7,397.2c-23.9,0-44.2-8.4-61.1-25.3c-16.9-16.9-25.3-37.2-25.3-61.1c0-23.9,8.4-44.2,25.3-61.1
			c16.9-16.9,37.2-25.3,61.1-25.3s44.2,8.4,61.1,25.3c16.9,16.9,25.3,37.2,25.3,61.1c0,23.9-8.4,44.2-25.3,61.1
			C1136,388.7,1115.6,397.2,1091.7,397.2z M1091.7,238.7c-19.8,0-36.8,7.1-50.8,21.2c-14.1,14.1-21.1,31-21.1,50.8s7,36.8,21.1,50.8
			c14.1,14.1,31,21.1,50.8,21.1s36.8-7,50.8-21.1c14.1-14.1,21.2-31,21.2-50.8s-7.1-36.8-21.2-50.8
			C1128.5,245.8,1111.6,238.7,1091.7,238.7z"/>
		<path d="M1253.4,389.9c0,2-0.7,3.7-2,5.2c-1.4,1.4-3.1,2-5.1,2s-3.7-0.7-5.2-2c-1.4-1.4-2-3.2-2-5.2V232c0-3.6,1.8-5.9,5.3-6.9
			s6.1,0.1,8.1,3.3l71.8,118.7l71.8-118.7c1.9-3.1,4.6-4.2,8.1-3.3c3.5,1,5.3,3.3,5.3,6.9v157.9c0,2-0.7,3.7-2.2,5.2
			c-1.4,1.4-3.1,2-5.1,2c-1.9,0-3.6-0.7-5.1-2c-1.4-1.4-2-3.2-2-5.2V257.8l-64.7,106.9l-0.1,0.1v0.1c-0.2,0.2-0.3,0.4-0.5,0.6
			c-0.2,0.2-0.4,0.4-0.5,0.5c-0.2,0.2-0.3,0.3-0.5,0.5s-0.4,0.3-0.6,0.5c-0.4,0.2-0.5,0.3-0.2,0.1c0.1-0.1,0,0-0.4,0.1
			c-0.2,0.2-0.5,0.3-0.7,0.4c-0.2,0.1-0.4,0.2-0.6,0.2c-0.2,0.1-0.5,0.1-0.7,0.1c-0.2,0.1-0.4,0.1-0.6,0.1c-0.2,0.1-0.5,0.1-0.7,0.1
			s-0.5,0-0.7-0.1c-0.2,0-0.4,0-0.6-0.1c-0.2,0-0.5,0-0.7-0.1s-0.4-0.2-0.6-0.2c-0.2-0.1-0.5-0.2-0.7-0.4c-0.1,0-0.2,0-0.2,0
			c0-0.1,0-0.1-0.1-0.1c0.2,0.2,0.2,0.1-0.2-0.1c-0.2-0.2-0.4-0.3-0.6-0.5s-0.3-0.3-0.5-0.5s-0.3-0.3-0.5-0.5s-0.3-0.4-0.5-0.6v-0.1
			l-0.1-0.1l-64.7-106.9v132.1H1253.4z"/>
		<path d="M1481.2,397.2c-2,0-3.7-0.7-5.1-2.2c-1.4-1.4-2.2-3.1-2.2-5.1V231.4c0-2,0.7-3.7,2.2-5.1c1.4-1.5,3.1-2.2,5.1-2.2
			l95.7,0.2c2,0,3.7,0.7,5.1,2.2c1.4,1.4,2.2,3.1,2.2,5.1s-0.7,3.7-2.2,5.2c-1.4,1.4-3.1,2-5.1,2l-88.4-0.2v64.8h66.1
			c2,0,3.7,0.7,5.1,2.2c1.4,1.4,2.2,3.1,2.2,5.1s-0.7,3.7-2.2,5.1c-1.4,1.4-3.1,2.2-5.1,2.2h-66.1v64.8h88.4c2,0,3.7,0.7,5.1,2.2
			c1.4,1.4,2.2,3.1,2.2,5.1s-0.7,3.7-2.2,5.1c-1.4,1.4-3.1,2.2-5.1,2.2h-95.7V397.2z"/>
	</g>
	<g>
		<path d="M876.5,533.4c-18.1-0.2-31.7-5.2-40.9-15c-7.4-7.8-10.8-16.9-10.4-27.2c0.6-12.7,5.8-23.5,15.5-32.3
			c9.6-8.8,21.2-13.2,34.7-13.2c11.9,0,22.5,2.5,31.9,7.5c11.2,5.9,18.3,14.4,21.2,25.6c0.5,1.8,0.2,3.5-0.7,5.1
			c-1,1.6-2.4,2.6-4.2,3c-1.8,0.5-3.5,0.3-5.1-0.7c-1.6-0.9-2.6-2.3-3-4.1c-2-7.8-7.3-13.8-15.8-17.8c-7.1-3.5-15.2-5.2-24.3-5.2
			c-9.9,0-18.3,3.2-25.4,9.5s-10.8,14.1-11.3,23.3c-0.3,6.5,2,12.2,6.8,17.3c6.6,7,17,10.6,31.3,10.8c1.9,0.1,3.5,0.8,4.7,2
			c1.3,1.4,1.9,3,1.9,4.9c-0.1,1.8-0.8,3.4-2,4.6c-1.4,1.3-2.9,1.9-4.7,1.9L876.5,533.4L876.5,533.4z M846.6,600.4
			c-11.2-5.9-18.3-14.5-21.2-25.8c-0.5-1.7-0.2-3.4,0.7-5.1c1-1.6,2.4-2.6,4.2-3c1.7-0.5,3.4-0.2,5.1,0.7c1.6,1,2.6,2.3,3,4.1
			c2,7.8,7.3,13.8,15.8,18c7.1,3.4,15.2,5.1,24.3,5.1c9.9,0,18.3-3.2,25.4-9.5s10.8-14,11.3-23.2c0.3-6.6-2-12.3-6.8-17.4
			c-6.6-7-17-10.6-31.3-10.8c-1.9,0-3.5-0.7-4.7-2c-1.3-1.4-1.9-2.9-1.9-4.7c0.1-1.9,0.8-3.5,2.1-4.7c1.3-1.3,2.9-1.9,4.7-1.9
			c18.1,0.3,31.7,5.3,40.9,15.1c7.4,7.8,10.8,16.8,10.3,27.1c-0.5,12.7-5.6,23.5-15.4,32.3c-9.6,8.8-21.2,13.2-34.7,13.2
			C866.6,607.7,856,605.3,846.6,600.4z"/>
		<path d="M1070.3,607.7c-1.9,0-3.5-0.7-4.9-2c-1.3-1.3-1.9-2.9-1.9-4.7v-67.3h-92.3v67.2c0,1.9-0.6,3.5-1.9,4.7c-1.4,1.4-3,2-4.9,2
			s-3.5-0.7-4.7-2c-1.4-1.3-2-2.9-2-4.7V452.6c0-1.9,0.7-3.5,2-4.7c1.3-1.4,2.9-2,4.7-2c1.9,0,3.5,0.7,4.9,2
			c1.3,1.3,1.9,2.9,1.9,4.7v67.3h92.3v-67.3c0-1.9,0.6-3.5,1.9-4.7c1.4-1.4,3-2,4.9-2s3.5,0.7,4.7,2c1.4,1.3,2,2.9,2,4.7v148.3
			c0,1.9-0.7,3.5-2,4.7C1073.7,607,1072.2,607.7,1070.3,607.7z"/>
		<path d="M1182,607.7c-22.4,0-41.5-7.9-57.3-23.7s-23.7-34.9-23.7-57.3s7.9-41.5,23.7-57.3c15.8-15.8,34.9-23.7,57.3-23.7
			s41.5,7.9,57.3,23.7s23.7,34.9,23.7,57.3s-7.9,41.5-23.7,57.3S1204.3,607.7,1182,607.7z M1182,459.2c-18.6,0-34.5,6.6-47.7,19.9
			c-13.2,13.2-19.8,29.1-19.8,47.7c0,18.6,6.6,34.5,19.8,47.7c13.2,13.2,29.1,19.8,47.7,19.8s34.5-6.6,47.7-19.8
			c13.3-13.2,19.9-29.1,19.9-47.7c0-18.6-6.6-34.5-19.9-47.7C1216.5,465.8,1200.6,459.2,1182,459.2z"/>
		<path d="M1353.4,445.6c13.2,0,24.4,4.3,33.8,13c9.3,8.6,13.9,18.9,13.9,31.1c0,11.7-4.4,21.8-13.1,30.3
			c-8.7,8.4-19.4,13-31.9,13.7c-0.5,0-0.8,0-0.9,0h-1.4c-0.2,0.1-0.3,0.1-0.5,0.1c0.2,0,0.1,0-0.3-0.1h-44.4v67.2
			c0,1.9-0.7,3.5-2,4.7c-1.3,1.4-2.9,2-4.7,2c-1.9,0-3.5-0.7-4.7-2c-1.4-1.3-2-2.9-2-4.7V452.4c0-1.9,0.7-3.5,2-4.7
			c1.3-1.4,2.9-2,4.7-2L1353.4,445.6L1353.4,445.6z M1354.3,520.2c9.2-0.2,17-3.3,23.5-9.1c6.6-5.9,9.8-13.1,9.8-21.3
			c0-8.4-3.4-15.6-10.1-21.6c-6.7-5.9-14.8-8.9-24.2-8.9h-44.7v61h45.7V520.2z"/>
		<path d="M1431.7,600.8c0.8-0.7,1.7-1.1,2.9-1.1c1.1,0,2.1,0.4,2.8,1.1c0.8,0.8,1.2,1.8,1.2,2.8c0,1.1-0.4,2.1-1.2,2.8
			c-0.8,0.8-1.8,1.2-2.8,1.2c-1.1,0-2.1-0.4-2.9-1.2s-1.2-1.7-1.2-2.8C1430.5,602.5,1430.9,601.6,1431.7,600.8z"/>
		<path d="M1472.7,603.6c0,1.1-0.4,2.1-1.2,2.8c-0.8,0.8-1.7,1.2-2.8,1.2s-2.1-0.4-2.8-1.2c-0.8-0.8-1.2-1.7-1.2-2.8v-88.7
			c0-1.1,0.4-2.1,1.2-2.8c0.8-0.8,1.7-1.2,2.8-1.2s2.1,0.4,2.8,1.2c0.8,0.8,1.2,1.7,1.2,2.8V603.6z"/>
		<path d="M1535.8,607.7c-13.4,0-24.9-4.7-34.4-14.2s-14.2-20.9-14.2-34.4s4.7-24.9,14.2-34.4s20.9-14.2,34.4-14.2
			c13.4,0,24.9,4.7,34.4,14.2s14.2,20.9,14.2,34.4s-4.7,24.9-14.2,34.4C1560.6,603,1549.2,607.7,1535.8,607.7z M1535.8,518.6
			c-11.2,0-20.7,4-28.6,11.9s-11.9,17.4-11.9,28.6c0,11.2,4,20.7,11.9,28.6c7.9,7.9,17.4,11.9,28.6,11.9s20.7-4,28.6-11.9
			c8-7.9,11.9-17.4,11.9-28.6c0-11.2-4-20.7-11.9-28.6C1556.5,522.6,1546.9,518.6,1535.8,518.6z"/>
	</g>
	<g>
		<path d="M636.8,286c-0.5-10.6-11-15.9-18.8-21.6c-40.6-30.1-81.2-60.1-121.8-90.2c-34.5-25.6-69-51.1-103.5-76.7
			c-3.2-2.4-9.4-2.4-12.6,0c-71.6,53.1-143.3,106.1-214.9,159.2c-5.8,4.3-11.6,8.6-17.4,12.9c-3.2,2.4-8.1,5.2-10.1,8.6
			c-4.8,8.3-1.7,24.7-1.7,33.6c0,52.9,0,105.8,0,158.7c0,41.6,0,83.1,0,124.7c0,6.7,5.7,12.5,12.5,12.5c30.9,0,61.9,0,92.8,0
			c16.1,0,16.1-25,0-25c-26.8,0-53.6,0-80.4,0c0-86.7,0-173.3,0-260c0-10.7,0-21.4,0-32c67.3-49.9,134.6-99.7,202-149.6
			c7.8-5.8,15.6-11.6,23.5-17.4c67.3,49.8,134.6,99.7,201.8,149.5c7.9,5.8,15.7,11.6,23.6,17.5c0,88.8,0,177.5,0,266.3
			c0,8.6,0,17.2,0,25.8c-26.8,0-53.6,0-80.4,0c-16.1,0-16.1,25,0,25c30.9,0,61.9,0,92.8,0c6.7,0,12.5-5.7,12.5-12.5
			c0-89.3,0-178.7,0-268C636.8,313.5,637.4,299.7,636.8,286z"/>
		<g>
			<g>
				<path d="M261.7,428.9c0,27.7,13.7,53.7,36,69.9c17.3,12.5,37.1,16,58,16c18.5,0,37,0,55.4,0c19.1,0,37.3-0.9,54.7-10.2
					c27.6-14.6,45.4-44.5,45.4-75.7c0-16.1-25-16.1-25,0c0,29.1-21.2,54.6-49.8,60c-16,3-33.9,1-50,1s-34,2-50-1
					c-28.6-5.4-49.8-30.9-49.8-60C286.7,412.9,261.7,412.8,261.7,428.9L261.7,428.9z"/>
			</g>
		</g>
		<g>
			<g>
				<ellipse transform="matrix(0.9239 -0.3827 0.3827 0.9239 -110.9651 145.7409)" cx="310.9" cy="351.8" rx="21.4" ry="21.4"/>
			</g>
			<g>
				<circle cx="462.1" cy="351.8" r="21.4"/>
			</g>
		</g>
		<path d="M767.6,279.5c-42.2-31.3-84.5-62.6-126.7-93.8C573.6,135.9,506.3,86,439,36.2c-15.4-11.4-30.8-22.8-46.2-34.3
			c-3.2-2.4-9.4-2.4-12.6,0C338,33.2,295.7,64.5,253.5,95.7c-67.3,49.8-134.6,99.7-201.9,149.5C36.2,256.6,20.8,268,5.4,279.5
			C-7.4,289,5.1,310.6,18,301c42.2-31.3,84.5-62.6,126.7-93.8c67.3-49.8,134.6-99.7,201.9-149.5c13.3-9.9,26.6-19.7,40-29.6
			c40.1,29.7,80.3,59.4,120.4,89.2c67.3,49.8,134.6,99.7,201.9,149.5c15.4,11.4,30.8,22.8,46.2,34.3
			C767.9,310.6,780.3,289,767.6,279.5z"/>
	</g>
</g>
</svg>
